<?xml version="1.0" encoding="UTF-8"?>
<svg version="1.1" xmlns="http://www.w3.org/2000/svg" width="1340" height="893">
<path d="M0 0 C57.42 0 114.84 0 174 0 C174 71.28 174 142.56 174 216 C186.54 216 199.08 216 212 216 C212 144.72 212 73.44 212 0 C269.09 0 326.18 0 385 0 C385.1613254 64.40916446 385.1613254 64.40916446 385.1953125 91.45898438 C385.20314203 97.64868207 385.2112234 103.83837936 385.21972656 110.02807617 C385.22078156 110.80367699 385.22183655 111.5792778 385.22292352 112.37838167 C385.24024242 124.84165622 385.27173361 137.30485571 385.30861118 149.76808599 C385.34623695 162.59272242 385.36828112 175.41732 385.37635398 188.24200934 C385.38179734 196.1328206 385.3988824 204.02341965 385.43166587 211.91416546 C385.45564186 218.00125407 385.45776617 224.0881865 385.45243073 230.17531586 C385.4535168 232.6457136 385.46127696 235.11612058 385.4768219 237.58646965 C385.82986326 296.66914848 365.37647255 347.10584806 324 389 C292.35740785 420.30339131 247.2180468 439.92867302 202.58203125 440.203125 C201.81069855 440.21013931 201.03936584 440.21715363 200.24465942 440.22438049 C197.76721276 440.24178524 195.29000557 440.24823358 192.8125 440.25 C191.96374298 440.25067474 191.11498596 440.25134949 190.24050903 440.25204468 C176.94484634 440.23526851 164.06630894 439.64660484 151 437 C150.14277344 436.83371094 149.28554688 436.66742187 148.40234375 436.49609375 C114.25214996 429.70629086 84.45787944 413.51261746 59 390 C58.23647217 389.29641357 58.23647217 389.29641357 57.45751953 388.57861328 C45.69614571 377.60738886 36.19390197 364.78862201 28 351 C27.6587207 350.42733398 27.31744141 349.85466797 26.96582031 349.26464844 C-1.51065014 300.6775223 -0.32389786 243.08635199 -0.20278788 188.69798756 C-0.19143041 182.72348016 -0.18953019 176.74897215 -0.18748413 170.77445599 C-0.18314128 158.96583382 -0.16992647 147.15723977 -0.15087891 135.34863281 C-0.13243062 123.89941544 -0.11834136 112.45020583 -0.10986328 101.00097656 C-0.10932729 100.28427976 -0.10879129 99.56758296 -0.10823905 98.82916808 C-0.10361138 92.5918223 -0.09930672 86.35447631 -0.09503365 80.11713028 C-0.07632202 53.41139365 -0.03645004 26.70573196 0 0 Z " fill="#000000" transform="translate(796,171)"/>
<path d="M0 0 C10.76127387 9.02072569 18.43155325 20.91121975 23.38671875 33.98046875 C24.00546875 35.58148438 24.00546875 35.58148438 24.63671875 37.21484375 C31.15642462 57.22671872 28.71496164 79.55397773 19.63671875 98.23046875 C9.37748506 118.13438254 -5.97432529 131.42757563 -27.03125 139.16796875 C-29.61328125 139.98046875 -29.61328125 139.98046875 -31.61328125 139.98046875 C-31.61328125 143.94046875 -31.61328125 147.90046875 -31.61328125 151.98046875 C-11.48328125 151.98046875 8.64671875 151.98046875 29.38671875 151.98046875 C29.38671875 297.18046875 29.38671875 442.38046875 29.38671875 591.98046875 C-25.06328125 591.98046875 -79.51328125 591.98046875 -135.61328125 591.98046875 C-135.61328125 446.78046875 -135.61328125 301.58046875 -135.61328125 151.98046875 C-114.82328125 151.98046875 -94.03328125 151.98046875 -72.61328125 151.98046875 C-72.94328125 148.35046875 -73.27328125 144.72046875 -73.61328125 140.98046875 C-74.65226562 140.61695313 -75.69125 140.2534375 -76.76171875 139.87890625 C-99.08891826 131.90548113 -116.27599465 118.24837646 -126.921875 96.73828125 C-135.27067588 78.85789419 -136.57890333 56.64464832 -131.0078125 37.7265625 C-127.05949925 27.12030925 -122.06135652 17.55872459 -114.61328125 8.98046875 C-113.85015625 7.96984375 -113.08703125 6.95921875 -112.30078125 5.91796875 C-82.42048539 -26.74188951 -33.34504899 -25.76889436 0 0 Z " fill="#000000" transform="translate(476.61328125,19.01953125)"/>
<path d="M0 0 C0 56.76 0 113.52 0 172 C-10.395 172.99 -10.395 172.99 -21 174 C-34.41097423 176.9463504 -45.07035298 180.23126383 -53 192 C-61.1667371 207.35271132 -62.70038316 224.93025712 -64.63317871 241.93624878 C-71.43129183 301.70971364 -92.78311767 359.42954281 -140.68603516 398.37060547 C-192.07065864 438.99661848 -254.8720791 440 -318 440 C-318 382.91 -318 325.82 -318 267 C-309.09 266.34 -300.18 265.68 -291 265 C-275.11060351 262.5283161 -259.87145658 258.04212584 -249.6875 244.8125 C-241.12080769 232.12621119 -237.45329622 217.2263844 -235.96875 202.16015625 C-235.88514725 201.33954712 -235.80154449 200.51893799 -235.71540833 199.67346191 C-234.99778488 192.41948532 -234.48937282 185.15656582 -234.01220703 177.88354492 C-231.05251178 132.86235523 -226.96340732 89.81528214 -194.54296875 55.71875 C-192.74516423 53.79667327 -191.05751355 51.88960707 -189.39453125 49.859375 C-168.40096299 24.79038321 -133.8905932 10.78413551 -102.8125 4.1875 C-101.44460327 3.89528564 -101.44460327 3.89528564 -100.04907227 3.59716797 C-66.98677828 -2.99496267 -33.75344755 0 0 0 Z " fill="#000000" transform="translate(318,171)"/>
<path d="M0 0 C0 56.1 0 112.2 0 170 C-13.53 170.33 -27.06 170.66 -41 171 C-52.4952286 174.44856858 -60.29926566 178.95530304 -66.33984375 189.29296875 C-73.24228735 203.16079616 -75.13949248 218.97963648 -75.15821838 234.28884888 C-75.16315636 235.16718978 -75.16809434 236.04553068 -75.17318195 236.95048797 C-75.18841239 239.86298635 -75.19687791 242.77546295 -75.20532227 245.68798828 C-75.21491219 247.78796069 -75.22492291 249.88793122 -75.23532104 251.98789978 C-75.2622555 257.66686644 -75.28332681 263.34584131 -75.30332303 269.02483606 C-75.32525361 274.9678969 -75.35260758 280.91093275 -75.37937927 286.85397339 C-75.42921081 298.09819628 -75.47418488 309.34243311 -75.51740164 320.58668315 C-75.57610885 335.78795022 -75.64234425 350.98918438 -75.70815182 366.19042206 C-75.81157721 390.12692584 -75.90496558 414.06345803 -76 438 C-131.44 438 -186.88 438 -244 438 C-244.04030303 380.03528056 -244.04030303 380.03528056 -244.04882812 355.63671875 C-244.05078552 350.06298825 -244.05280586 344.48925778 -244.05493164 338.91552734 C-244.05519539 338.21710759 -244.05545914 337.51868784 -244.05573088 336.79910386 C-244.06006093 325.57519855 -244.06793393 314.35129846 -244.0771528 303.12739623 C-244.08655829 291.57855381 -244.09199542 280.0297144 -244.09408849 268.48086834 C-244.0953842 262.00676146 -244.09839703 255.53266632 -244.10573006 249.05856323 C-244.11259718 242.94534571 -244.11459558 236.83214459 -244.11310768 230.71892357 C-244.11337926 228.49399921 -244.11532019 226.2690742 -244.11920547 224.04415321 C-244.18410668 184.9061873 -244.18410668 184.9061873 -241.75 166.9375 C-241.62069092 165.96039063 -241.49138184 164.98328125 -241.3581543 163.9765625 C-236.63630159 130.13345026 -225.82981659 98.01643811 -206 70 C-205.59313965 69.4234668 -205.1862793 68.84693359 -204.76708984 68.25292969 C-195.28432954 55.00113121 -184.0782064 42.74986618 -171 33 C-170.48002441 32.60506348 -169.96004883 32.21012695 -169.42431641 31.80322266 C-119.04201864 -6.32914494 -60.53935207 -8.07191361 0 0 Z " fill="#000000" transform="translate(773,174)"/>
<path d="M0 0 C10.76127387 9.02072569 18.43155325 20.91121975 23.38671875 33.98046875 C24.00546875 35.58148438 24.00546875 35.58148438 24.63671875 37.21484375 C31.15642462 57.22671872 28.71496164 79.55397773 19.63671875 98.23046875 C9.37748506 118.13438254 -5.97432529 131.42757563 -27.03125 139.16796875 C-29.61328125 139.98046875 -29.61328125 139.98046875 -31.61328125 139.98046875 C-31.61328125 147.90046875 -31.61328125 155.82046875 -31.61328125 163.98046875 C-45.14328125 163.98046875 -58.67328125 163.98046875 -72.61328125 163.98046875 C-72.94328125 156.39046875 -73.27328125 148.80046875 -73.61328125 140.98046875 C-76.04703125 140.11421875 -78.48078125 139.24796875 -80.98828125 138.35546875 C-102.2420768 130.489013 -118.23601328 115.34054182 -127.80419922 94.84863281 C-135.84014277 76.29370219 -136.68247881 52.97027397 -129.61328125 33.98046875 C-125.79369257 24.77233852 -121.16909281 16.53106764 -114.61328125 8.98046875 C-113.85015625 7.96984375 -113.08703125 6.95921875 -112.30078125 5.91796875 C-82.42048539 -26.74188951 -33.34504899 -25.76889436 0 0 Z " fill="#000000" transform="translate(476.61328125,19.01953125)"/>
<path d="M0 0 C16.02831404 13.97461254 22.84885513 34.40706773 24.40234375 55.125 C25.64432727 76.91085202 20.69172261 97.84648304 13.65234375 118.3125 C18.92854902 117.57786276 24.19011102 116.78049567 29.44824219 115.92602539 C31.23405401 115.64467458 33.022583 115.38000279 34.81347656 115.13305664 C45.47942733 113.9095848 45.47942733 113.9095848 54.50683594 108.72143555 C56.62986826 105.85998058 56.62986826 105.85998058 58.17285156 102.91943359 C60.43690243 98.93007136 63.78073403 96.64685292 67.65234375 94.3125 C68.26722656 93.93996094 68.88210938 93.56742188 69.515625 93.18359375 C73.98542874 91.361352 78.92880747 91.80985903 83.65234375 92.3125 C86.90234375 93.8125 86.90234375 93.8125 88.65234375 96.3125 C89.51135923 101.23231593 89.51135923 101.23231593 88.65234375 104.3125 C84.47556043 108.89677438 79.32443752 112.06518475 72.984375 112.4921875 C70.53206921 112.49910515 68.10071631 112.44551018 65.65234375 112.3125 C63.61511722 118.93348621 62.71813986 125.39541588 63.65234375 132.3125 C65.64678866 135.59368357 66.94940339 136.73558551 70.56640625 137.9609375 C81.82330549 140.13044899 93.43816803 132.97849734 102.65234375 127.3125 C106.77010258 124.45117295 110.7200639 121.42160681 114.65234375 118.3125 C115.28140625 117.87292969 115.91046875 117.43335938 116.55859375 116.98046875 C119.88277826 114.58061106 121.31660961 112.13938947 122.96484375 108.5 C125.92832603 102.08391701 130.67518237 97.36826247 136.96484375 94.1171875 C140.42657099 93.08068196 143.54129488 92.97361049 147.15234375 92.9375 C148.44140625 92.90914062 149.73046875 92.88078125 151.05859375 92.8515625 C155.1790589 93.38005694 156.81319522 94.32816774 159.65234375 97.3125 C160.18056804 100.54787378 160.17192141 102.36503485 158.58984375 105.25 C155.38755417 107.00609429 153.10629538 106.1906233 149.65234375 105.3125 C148.64171875 104.61125 147.63109375 103.91 146.58984375 103.1875 C143.78516038 101.01522735 143.78516038 101.01522735 140.46484375 101.375 C136.5885281 102.66710522 135.44149555 104.03482566 133.33984375 107.4375 C132.32119687 111.69729606 133.1713872 115.2324647 134.65234375 119.3125 C136.6431674 122.17928805 136.6431674 122.17928805 138.65234375 124.3125 C138.65234375 124.9725 138.65234375 125.6325 138.65234375 126.3125 C139.2040625 126.55742188 139.75578125 126.80234375 140.32421875 127.0546875 C143.12873866 128.56988114 145.43337498 130.42334126 147.90234375 132.4375 C148.794375 133.16195312 149.68640625 133.88640625 150.60546875 134.6328125 C151.61867188 135.46425781 151.61867188 135.46425781 152.65234375 136.3125 C160.69290109 132.10780487 168.46348866 127.48989824 176.21557617 122.77954102 C179.94121017 120.51896887 183.65569501 118.27330795 187.50390625 116.2265625 C193.82855336 113.07998569 193.82855336 113.07998569 197.71484375 107.5 C198.17890625 105.9221875 198.17890625 105.9221875 198.65234375 104.3125 C202.72083784 101.60017061 204.81711159 102.00550113 209.65234375 102.3125 C210.31234375 102.9725 210.97234375 103.6325 211.65234375 104.3125 C211.37834781 107.71004967 211.06308399 110.89139872 210.1171875 114.1640625 C209.48809379 117.07163849 209.52052678 119.84030173 209.52734375 122.8125 C209.52347656 124.49859375 209.52347656 124.49859375 209.51953125 126.21875 C209.63063646 128.80684793 209.7258236 130.90354761 210.65234375 133.3125 C215.85430191 136.1135544 221.06615338 135.51349142 226.65234375 134.3125 C241.98185866 129.4473188 256.47607425 120.24721515 265.07421875 106.546875 C271.16382555 97.92495646 281.08004868 91.76880058 291.390625 89.59375 C301.18679739 88.37557312 309.98877938 88.50420898 318.02734375 94.75 C321.8584976 98.4899359 321.8584976 98.4899359 322.65234375 101.3125 C322.27734375 104.0625 322.27734375 104.0625 321.65234375 106.3125 C319.08984375 106.875 319.08984375 106.875 315.65234375 106.3125 C313.9765625 104.37890625 313.9765625 104.37890625 312.27734375 101.9375 C309.28473042 97.7749249 309.28473042 97.7749249 304.83984375 95.5 C298.73813486 94.60303699 293.43504155 97.45736813 288.484375 100.7578125 C279.56396975 107.90103837 273.97662556 118.05610458 272.65234375 129.3125 C283.21058451 123.0921411 292.65483398 114.3888852 300.1875 104.73828125 C301.9697166 103.00359042 303.20029812 102.60358791 305.65234375 102.3125 C306.31234375 102.6425 306.97234375 102.9725 307.65234375 103.3125 C308.69156953 106.90054715 308.67904801 110.03803262 308.34765625 113.734375 C308.25871094 114.76046875 308.16976563 115.7865625 308.078125 116.84375 C307.92923828 118.43703125 307.92923828 118.43703125 307.77734375 120.0625 C307.68582031 121.10921875 307.59429688 122.1559375 307.5 123.234375 C306.96429939 129.27043825 306.34501819 135.2925294 305.65234375 141.3125 C306.38195313 140.71824219 307.1115625 140.12398437 307.86328125 139.51171875 C321.58140638 128.54124944 339.78920174 114.53186007 357.65234375 112.3125 C357.79929687 111.76722656 357.94625 111.22195313 358.09765625 110.66015625 C360.00609603 104.24385008 362.77188053 96.83248209 368.61328125 93.0390625 C371.77772633 91.91150161 374.42665683 92.64301781 377.65234375 93.3125 C378.65234375 94.3125 378.65234375 94.3125 378.87011719 97.44848633 C378.63804511 101.5662047 377.75064582 104.34379734 376.16796875 108.13671875 C375.91110291 108.76423538 375.65423706 109.39175201 375.3895874 110.0382843 C374.57192832 112.03047472 373.73813562 114.01535748 372.90234375 116 C365.43466091 131.66055 365.43466091 131.66055 362.65234375 148.3125 C363.1628125 147.35472656 363.67328125 146.39695312 364.19921875 145.41015625 C368.36180796 137.73638653 372.79560195 130.38017669 377.83984375 123.25 C378.56929199 122.21661499 378.56929199 122.21661499 379.31347656 121.16235352 C388.89072679 107.8341755 388.89072679 107.8341755 395.65234375 104.3125 C399.81663088 103.82258387 401.11803719 103.95629563 404.65234375 106.3125 C406.50529176 113.35370244 404.99450623 119.18303923 403.03881836 126.01977539 C401.63477848 131.17906953 401.51298706 135.0543689 402.65234375 140.3125 C405.32047226 142.58040923 407.10073838 143.33703131 410.62890625 143.28125 C427.84838947 140.52613268 442.62167834 124.20716724 453.3828125 111.578125 C455.59812984 109.3666206 456.5674146 108.49746363 459.65234375 108.3125 C460.31234375 108.6425 460.97234375 108.9725 461.65234375 109.3125 C461.54719679 113.62352554 460.5331611 115.76237573 457.52734375 118.6875 C456.89054687 119.2753125 456.25375 119.863125 455.59765625 120.46875 C453.69203151 122.27488429 452.06744232 124.16042348 450.40234375 126.1875 C440.37671253 137.7281155 425.62832352 148.94455033 410.05859375 150.5859375 C404.60306276 150.79955769 400.44868473 150.13387705 395.65234375 147.3125 C390.93506852 142.90970979 389.15637235 138.7388647 388.65234375 132.3125 C388.78811023 128.28314481 389.15157032 124.3119202 389.65234375 120.3125 C388.06750567 122.74903256 386.48421826 125.18654364 384.90234375 127.625 C384.41443359 128.37668457 383.92652344 129.12836914 383.42382812 129.90283203 C380.70350515 134.10516069 378.01013153 138.32225231 375.35546875 142.56640625 C374.55254395 143.84874146 374.55254395 143.84874146 373.73339844 145.15698242 C372.69413238 146.82035374 371.65822071 148.48582643 370.62597656 150.15356445 C370.14999023 150.91499756 369.67400391 151.67643066 369.18359375 152.4609375 C368.55807617 153.46906494 368.55807617 153.46906494 367.91992188 154.49755859 C366.61792944 156.36177504 365.40221986 157.85738031 363.65234375 159.3125 C360.21484375 159.875 360.21484375 159.875 356.65234375 159.3125 C351.1298837 153.20872837 351.33229464 146.09655152 351.65234375 138.3125 C352.02734762 135.09998851 352.57113121 131.93096052 353.15234375 128.75 C353.29542969 127.93208984 353.43851563 127.11417969 353.5859375 126.27148438 C353.93462687 124.28395496 354.2925046 122.29804104 354.65234375 120.3125 C340.83800284 124.01276989 328.66725365 132.44825853 317.65234375 141.3125 C316.47828275 142.21148389 315.30378682 143.10989997 314.12890625 144.0078125 C312.94772713 144.94082306 311.76800839 145.87568578 310.58984375 146.8125 C310.04110596 147.22677246 309.49236816 147.64104492 308.92700195 148.06787109 C304.37337277 151.7925958 303.07183055 155.71116834 301.65234375 161.3125 C301.3989624 162.27945801 301.14558105 163.24641602 300.88452148 164.24267578 C300.33285958 166.38848935 299.79057457 168.53673054 299.2565918 170.68701172 C292.2513259 198.88025388 282.30097886 235.78288069 257.46484375 253.875 C253.37478941 255.96547222 250.38628769 256.7853938 245.90234375 255.5625 C243.65234375 254.3125 243.65234375 254.3125 241.65234375 251.3125 C237.96508651 221.51431652 266.08333321 188.07438556 282.93212891 165.76879883 C289.64852229 156.82428709 292.72949735 149.34522199 295.33984375 138.4375 C295.64728516 137.20902344 295.95472656 135.98054687 296.27148438 134.71484375 C297.85708332 128.24060385 299.11410618 121.95793981 299.65234375 115.3125 C298.93949219 116.16972656 298.22664063 117.02695312 297.4921875 117.91015625 C278.54989612 140.58124515 278.54989612 140.58124515 267.27734375 141.625 C263.65234375 141.3125 263.65234375 141.3125 260.83984375 139.9375 C257.66576272 136.12860276 257.26970661 132.14083047 256.65234375 127.3125 C255.79253906 127.90417969 254.93273438 128.49585938 254.046875 129.10546875 C240.22941464 138.41556603 225.53004153 145.11815581 208.39453125 141.88671875 C202.73948069 139.8199626 199.0003933 134.94440627 196.33984375 129.75 C195.55292622 126.96001966 195.11141356 124.17285806 194.65234375 121.3125 C191.27207146 123.31555278 187.89498351 125.32386646 184.52050781 127.33666992 C182.82124291 128.3488511 181.11963523 129.35709592 179.41796875 130.36523438 C172.62570438 134.42061575 166.05619814 138.66676179 159.65234375 143.3125 C159.9037915 144.17641357 160.15523926 145.04032715 160.41430664 145.93041992 C163.85249724 158.15909612 162.19311681 167.82601798 156.16625977 178.78100586 C148.4592114 191.83711481 135.49909528 205.12297454 120.65234375 209.3125 C114.84254342 210.02532024 108.21594843 210.78330052 102.96484375 207.6875 C99.74546969 204.38111583 97.84264963 201.84991179 97.48828125 197.125 C98.09616833 182.53571013 108.28680553 172.12951795 118.34277344 162.73291016 C126.59472882 155.20990109 135.45712107 148.62897515 144.65234375 142.3125 C141.76501038 139.21456114 138.82449809 137.01534037 135.21484375 134.8125 C129.50890795 131.3206895 124.83269836 128.33843505 121.65234375 122.3125 C121.24886719 122.71339844 120.84539062 123.11429688 120.4296875 123.52734375 C106.89032627 136.20432528 87.23865731 146.35056182 68.453125 146.3046875 C61.20889387 145.8948048 56.36356155 144.72247137 50.83984375 139.8125 C47.53594775 136.03661886 47.51545213 133.16428132 47.52734375 128.3125 C47.52476562 127.260625 47.5221875 126.20875 47.51953125 125.125 C47.65234375 122.3125 47.65234375 122.3125 48.65234375 119.3125 C47.47285156 119.60769531 46.29335938 119.90289063 45.078125 120.20703125 C40.93664818 121.14382278 36.85871355 121.61626332 32.6328125 122.01171875 C18.89600592 123.21249889 18.89600592 123.21249889 7.22216797 129.65185547 C3.3575511 135.19537134 0.97105793 141.31471244 -1.31835938 147.640625 C-3.42332653 153.10475226 -6.88135752 157.62683137 -10.34765625 162.3125 C-11.10304688 163.33859375 -11.8584375 164.3646875 -12.63671875 165.421875 C-37.77970934 199.03179547 -72.95185807 231.38282316 -116.13671875 237.8828125 C-126.17598716 238.84380153 -136.69681834 238.44077386 -144.8828125 231.8359375 C-152.3668134 224.05257657 -152.80652121 215.89965396 -152.62109375 205.5859375 C-152.06722147 193.03332717 -143.52817184 183.97789302 -134.9375 175.578125 C-127.73559713 169.27781781 -119.45961813 164.34007067 -111.34765625 159.3125 C-111.44304688 158.0028125 -111.5384375 156.693125 -111.63671875 155.34375 C-114.02539141 118.23327653 -105.51590046 83.19543743 -92.03515625 48.75 C-91.72215576 47.94143555 -91.40915527 47.13287109 -91.08666992 46.29980469 C-89.42243544 42.22249684 -87.91826713 39.08803558 -84.34765625 36.3125 C-81.78515625 35.875 -81.78515625 35.875 -79.34765625 36.3125 C-76.69228174 38.42900877 -75.87362553 40.02751407 -75.47265625 43.375 C-74.84642574 53.26323153 -80.03006593 62.75017538 -83.6736145 71.74163818 C-102.00903395 112.33555279 -102.00903395 112.33555279 -103.34765625 155.3125 C-102.02894531 154.63767578 -102.02894531 154.63767578 -100.68359375 153.94921875 C-73.05663697 140.19768421 -29.82059739 121.3125 1.65234375 121.3125 C1.76771484 120.77012695 1.88308594 120.22775391 2.00195312 119.66894531 C2.8665222 115.68270093 3.78583433 111.72922323 4.87109375 107.796875 C12.57719657 79.61828501 13.5922578 49.61675768 -0.9765625 23.37890625 C-9.67328146 9.04002063 -21.95071508 0.71255128 -38.1796875 -3.40625 C-56.7912863 -7.19334909 -74.77552798 -1.88741042 -90.4140625 8.3125 C-106.28295044 19.66189623 -115.88993699 33.87966114 -121.35839844 52.35961914 C-123.33549137 58.94339667 -123.33549137 58.94339667 -126.34765625 61.3125 C-129.91015625 61.6875 -129.91015625 61.6875 -133.34765625 61.3125 C-135.74048567 57.72325587 -136.16159895 55.44820883 -135.34765625 51.3125 C-128.74599329 33.94234498 -114.88874394 19.40527261 -100.34765625 8.3125 C-99.5690625 7.70664062 -98.79046875 7.10078125 -97.98828125 6.4765625 C-70.00111969 -14.27901704 -29.0934927 -23.24420967 0 0 Z M75.65234375 97.3125 C74.64641132 98.4321986 73.64775885 99.5584412 72.65234375 100.6875 C72.09546875 101.31398438 71.53859375 101.94046875 70.96484375 102.5859375 C69.45061888 104.21639833 69.45061888 104.21639833 69.65234375 106.3125 C73.30551046 105.06273244 74.43300211 104.64151247 76.65234375 101.3125 C76.34393776 99.15975052 76.34393776 99.15975052 75.65234375 97.3125 Z M-10.49609375 130.76171875 C-11.1277092 130.93004211 -11.75932465 131.09836548 -12.41007996 131.27178955 C-14.51704488 131.83815039 -16.62005452 132.41765997 -18.72265625 133 C-19.44895233 133.19957306 -20.17524841 133.39914612 -20.92355347 133.60476685 C-63.28780558 144.53362049 -63.28780558 144.53362049 -102.34765625 163.3125 C-101.00336555 168.82409187 -98.39142231 172.45658616 -94.34765625 176.3125 C-93.39890625 176.828125 -92.45015625 177.34375 -91.47265625 177.875 C-90.77140625 178.349375 -90.07015625 178.82375 -89.34765625 179.3125 C-88.97265625 182.4375 -88.97265625 182.4375 -89.34765625 185.3125 C-90.34765625 186.3125 -90.34765625 186.3125 -92.6328125 186.41015625 C-93.54933594 186.39855469 -94.46585938 186.38695312 -95.41015625 186.375 C-96.32925781 186.36597656 -97.24835937 186.35695313 -98.1953125 186.34765625 C-98.90558594 186.33605469 -99.61585938 186.32445312 -100.34765625 186.3125 C-101.46862096 183.56432845 -102.52821525 180.80955679 -103.53125 178.015625 C-103.94503906 176.87609375 -104.35882812 175.7365625 -104.78515625 174.5625 C-105.40197266 172.83773437 -105.40197266 172.83773437 -106.03125 171.078125 C-106.46566406 170.16546875 -106.90007813 169.2528125 -107.34765625 168.3125 C-108.33765625 167.9825 -109.32765625 167.6525 -110.34765625 167.3125 C-112.71783511 168.70690001 -114.83870865 170.11692977 -117.03515625 171.75 C-117.66220459 172.20938965 -118.28925293 172.6687793 -118.93530273 173.14208984 C-129.65361863 181.13545713 -137.71724022 189.85455752 -140.34765625 203.3125 C-141.04665561 209.63222024 -140.78978804 215.80736869 -137.34765625 221.3125 C-132.77821177 226.32702024 -128.22409087 229.83111269 -121.359375 230.68359375 C-95.34443291 231.20328119 -70.00528437 214.58704546 -51.57421875 197.38671875 C-49.54813129 195.49925832 -47.4686872 193.71629289 -45.34765625 191.9375 C-29.85872002 178.29983105 -17.73432833 160.57490555 -8.34765625 142.3125 C-7.87561768 141.39573486 -7.87561768 141.39573486 -7.39404297 140.46044922 C-5.67259647 137.09658834 -3.99098417 133.71515545 -2.34765625 130.3125 C-5.35757104 128.8075426 -7.27770154 129.90028951 -10.49609375 130.76171875 Z M145.1328125 151.734375 C144.44695068 152.2593457 143.76108887 152.78431641 143.05444336 153.32519531 C142.32362549 153.89850586 141.59280762 154.47181641 140.83984375 155.0625 C140.08517822 155.64870117 139.3305127 156.23490234 138.55297852 156.83886719 C117.90154507 172.15139097 117.90154507 172.15139097 104.58984375 193.4375 C104.3560539 196.57498114 104.3560539 196.57498114 107.08984375 199.1875 C108.35828125 200.239375 108.35828125 200.239375 109.65234375 201.3125 C118.21692483 199.17135473 123.59762609 193.36307343 129.65234375 187.3125 C130.43867187 186.549375 131.225 185.78625 132.03515625 185 C136.96209279 179.91413002 140.82801534 174.28189052 144.58984375 168.3125 C145.06301025 167.57700928 145.53617676 166.84151855 146.02368164 166.08374023 C149.32460776 160.65697691 150.78174112 155.58935661 151.65234375 149.3125 C148.25716536 149.3125 147.72383534 149.73689194 145.1328125 151.734375 Z M281.65234375 180.3125 C262.62644197 206.49372013 262.62644197 206.49372013 251.65234375 236.3125 C261.99198257 232.43223105 269.19877728 213.80748883 273.65234375 204.3125 C275.42150165 200.35775371 277.11760705 196.37680235 278.77734375 192.375 C279.3815918 190.92589233 279.3815918 190.92589233 279.99804688 189.44750977 C280.36091797 188.54830811 280.72378906 187.64910645 281.09765625 186.72265625 C281.42266113 185.91965088 281.74766602 185.11664551 282.08251953 184.28930664 C282.90890886 182.26108597 282.90890886 182.26108597 281.65234375 180.3125 Z " fill="#000000" transform="translate(835.34765625,622.6875)"/>
<path d="M0 0 C3.78064082 2.43294522 7.26686016 5.7479086 8.64329529 10.12445068 C9.14485773 12.65708546 9.20182477 14.98491403 9.19555664 17.56738281 C9.19548111 18.60815979 9.19540558 19.64893677 9.19532776 20.72125244 C9.19016647 21.83804382 9.18500519 22.95483521 9.1796875 24.10546875 C9.17827255 25.2540033 9.1768576 26.40253784 9.17539978 27.58587646 C9.16980268 31.25389206 9.15725069 34.9218466 9.14453125 38.58984375 C9.13951588 41.07682204 9.13495303 43.56380128 9.13085938 46.05078125 C9.12068515 52.14717786 9.101109 58.24344246 9.08203125 64.33984375 C-4.44796875 64.33984375 -17.97796875 64.33984375 -31.91796875 64.33984375 C-32.0099185 56.77697652 -32.08952653 49.2160575 -32.13769531 41.65307617 C-32.15778024 39.08172016 -32.18505354 36.51040966 -32.21972656 33.93920898 C-32.26837956 30.23800409 -32.29096958 26.53740442 -32.30859375 22.8359375 C-32.33956146 21.11835487 -32.33956146 21.11835487 -32.37115479 19.36607361 C-32.37299543 12.7827342 -31.91945189 8.65626829 -27.91796875 3.33984375 C-19.40876023 -3.50451962 -9.7767082 -4.81130473 0 0 Z " fill="#FAFAFA" transform="translate(435.91796875,118.66015625)"/>
<path d="M0 0 C13.2 0 26.4 0 40 0 C40.09195756 7.42046387 40.17156287 14.83894127 40.21972656 22.25952148 C40.23980963 24.78237619 40.26708157 27.30518453 40.30175781 29.82788086 C40.35041913 33.45958923 40.37300265 37.09068071 40.390625 40.72265625 C40.41127014 41.84583755 40.43191528 42.96901886 40.45318604 44.12623596 C40.45504782 50.66182253 39.95282638 54.71356572 36 60 C31.01562819 64.09826126 26.04389929 65.65540763 19.6875 66.375 C13.33261694 65.72874071 7.17445805 63.88566343 2.9375 58.875 C0.36408937 55.05639068 -0.12410555 53.36538522 -0.11352539 48.81591797 C-0.11344986 47.73494843 -0.11337433 46.65397888 -0.11329651 45.54025269 C-0.10813522 44.36939117 -0.10297394 43.19852966 -0.09765625 41.9921875 C-0.0962413 40.79643097 -0.09482635 39.60067444 -0.09336853 38.36868286 C-0.08775663 34.53743013 -0.07520208 30.70623516 -0.0625 26.875 C-0.05748653 24.28255293 -0.05292336 21.69010494 -0.04882812 19.09765625 C-0.03863286 12.7317305 -0.01905967 6.36593015 0 0 Z " fill="#AB8B11" transform="translate(969,387)"/>
<path d="M0 0 C1.46440149 4.26007706 0.68559066 7.17589791 -0.984375 11.19140625 C-2.52201189 13.92958272 -4.0691483 14.95326725 -7 16 C-9.75 15.8125 -9.75 15.8125 -12 15 C-13.43304064 12.13391871 -13.30644155 10.18699217 -13 7 C-11.33046724 3.89943916 -9.8995052 1.66737482 -7.0625 -0.4375 C-4.42577404 -1.15660708 -2.60478343 -0.72355095 0 0 Z " fill="#000000" transform="translate(1052,703)"/>
</svg>
