<svg width="32" height="32" viewBox="0 0 32 32" fill="none" xmlns="http://www.w3.org/2000/svg">
<path d="M13.4867 29.0815C14.2947 29.7482 15.1373 30.3575 16 30.9522C16.8645 30.3654 17.7031 29.7412 18.5133 29.0815C19.864 27.9725 21.1351 26.7699 22.3173 25.4828C25.0427 22.5028 28 18.1828 28 13.3335C28 11.7576 27.6896 10.1972 27.0866 8.74129C26.4835 7.28539 25.5996 5.96252 24.4853 4.84821C23.371 3.73391 22.0481 2.85 20.5922 2.24694C19.1363 1.64389 17.5759 1.3335 16 1.3335C14.4241 1.3335 12.8637 1.64389 11.4078 2.24694C9.95189 2.85 8.62902 3.73391 7.51472 4.84821C6.40042 5.96252 5.5165 7.28539 4.91345 8.74129C4.31039 10.1972 4 11.7576 4 13.3335C4 18.1828 6.95733 22.5015 9.68267 25.4828C10.8648 26.7704 12.136 27.972 13.4867 29.0815ZM16 17.6668C14.8507 17.6668 13.7485 17.2103 12.9359 16.3976C12.1232 15.585 11.6667 14.4828 11.6667 13.3335C11.6667 12.1842 12.1232 11.082 12.9359 10.2694C13.7485 9.45671 14.8507 9.00016 16 9.00016C17.1493 9.00016 18.2515 9.45671 19.0641 10.2694C19.8768 11.082 20.3333 12.1842 20.3333 13.3335C20.3333 14.4828 19.8768 15.585 19.0641 16.3976C18.2515 17.2103 17.1493 17.6668 16 17.6668Z" fill="#A66A3F"/>
</svg>
