<svg width="148" height="95" viewBox="0 0 148 95" fill="none" xmlns="http://www.w3.org/2000/svg">
<path d="M116.286 95C124.688 94.9722 132.739 91.6271 138.68 85.6948C144.622 79.7624 147.972 71.7244 148 63.3349C148 55.6825 146.383 48.5578 142.291 42.6892C139.395 38.4989 134.405 36.0396 129.648 33.4008C129.595 25.0623 129.701 23.0146 136.297 12.048C140.6 4.89163 132.312 -3.18297 125.25 1.28181C110.26 10.8025 100.048 19.3204 93.4726 29.3582C86.8971 39.3749 84.5714 50.5844 84.5714 63.3349C84.5854 71.7287 87.9312 79.7748 93.8758 85.7101C99.8203 91.6454 107.879 94.986 116.286 95ZM31.7143 95C40.1169 94.9722 48.1673 91.6271 54.1089 85.6948C60.0504 79.7624 63.4007 71.7244 63.4286 63.3349C63.4286 55.6825 61.8111 48.5578 57.72 42.6892C54.8234 38.4989 49.8337 36.0396 45.0766 33.4008C45.0237 25.0623 45.1189 23.0146 51.726 12.048C56.0286 4.89163 47.7406 -3.18297 40.6789 1.28181C25.6886 10.8025 15.4766 19.3204 8.90115 29.3582C2.32573 39.3749 0 50.5844 0 63.3349C0.0139771 71.7287 3.35979 79.7748 9.30434 85.7101C15.2489 91.6454 23.3074 94.986 31.7143 95Z" fill="#B3B3B3"/>
</svg>
