<svg width="32" height="32" viewBox="0 0 32 32" fill="none" xmlns="http://www.w3.org/2000/svg">
<path d="M21.3333 14.6667C21.3333 16.4348 20.631 18.1305 19.3807 19.3807C18.1305 20.631 16.4348 21.3333 14.6667 21.3333C12.8986 21.3333 11.2029 20.631 9.95262 19.3807C8.70238 18.1305 8 16.4348 8 14.6667C8 12.8986 8.70238 11.2029 9.95262 9.95262C11.2029 8.70238 12.8986 8 14.6667 8C16.4348 8 18.1305 8.70238 19.3807 9.95262C20.631 11.2029 21.3333 12.8986 21.3333 14.6667Z" fill="#A66A3F"/>
<path fill-rule="evenodd" clip-rule="evenodd" d="M2.66666 14.6667C2.66687 12.7498 3.12627 10.8609 4.00639 9.15811C4.88651 7.45528 6.16175 5.98807 7.72536 4.87929C9.28896 3.77051 11.0954 3.05244 12.9935 2.78518C14.8917 2.51792 16.8262 2.70926 18.6351 3.34317C20.4441 3.97708 22.0749 5.03512 23.391 6.42872C24.7071 7.82231 25.6703 9.51091 26.1998 11.3532C26.7292 13.1954 26.8097 15.1377 26.4344 17.0174C26.0591 18.8972 25.239 20.6597 24.0427 22.1573L28.9427 27.0573C29.1855 27.3088 29.3199 27.6456 29.3169 27.9952C29.3139 28.3448 29.1736 28.6792 28.9264 28.9264C28.6792 29.1736 28.3448 29.3139 27.9952 29.3169C27.6456 29.3199 27.3088 29.1856 27.0573 28.9427L22.1573 24.0427C20.3918 25.4533 18.2638 26.3368 16.0184 26.5913C13.7729 26.8459 11.5011 26.4612 9.46466 25.4816C7.42817 24.5019 5.7097 22.9671 4.50706 21.0538C3.30441 19.1405 2.66647 16.9265 2.66666 14.6667ZM14.6667 5.33334C13.441 5.33334 12.2273 5.57475 11.095 6.0438C9.96258 6.51284 8.93368 7.20033 8.067 8.06701C7.20032 8.93369 6.51283 9.96259 6.04379 11.095C5.57474 12.2273 5.33333 13.441 5.33333 14.6667C5.33333 15.8923 5.57474 17.106 6.04379 18.2384C6.51283 19.3708 7.20032 20.3997 8.067 21.2663C8.93368 22.133 9.96258 22.8205 11.095 23.2895C12.2273 23.7586 13.441 24 14.6667 24C17.142 24 19.516 23.0167 21.2663 21.2663C23.0167 19.516 24 17.142 24 14.6667C24 12.1913 23.0167 9.81735 21.2663 8.06701C19.516 6.31667 17.142 5.33334 14.6667 5.33334Z" fill="#A66A3F"/>
</svg>
